<svg id="svg" xmlns="http://www.w3.org/2000/svg" xmlns:xlink="http://www.w3.org/1999/xlink" width="400" height="49.45533769063181" viewBox="0, 0, 400,49.45533769063181"><g id="svgg"><path id="path0" d="M296.025 20.960 L 295.969 41.994 283.956 21.168 C 277.349 9.714,271.857 0.314,271.752 0.279 C 271.579 0.221,246.841 42.850,246.841 43.207 C 246.841 43.293,249.310 43.336,252.327 43.304 L 257.813 43.246 264.691 31.321 C 268.474 24.761,271.632 19.394,271.710 19.392 C 271.787 19.391,274.959 24.782,278.758 31.373 L 285.665 43.355 295.554 43.355 L 305.443 43.355 305.499 31.839 L 305.556 20.322 320.697 32.934 C 329.025 39.870,336.010 45.644,336.220 45.765 C 336.582 45.974,336.601 44.891,336.601 24.300 L 336.601 2.614 331.808 2.614 L 327.015 2.614 327.015 14.052 C 327.015 20.343,326.965 25.490,326.903 25.490 C 326.801 25.490,297.693 1.383,296.570 0.368 L 296.081 -0.074 296.025 20.960 M51.852 19.696 L 40.632 39.166 40.571 36.467 L 40.510 33.769 24.939 33.769 L 9.368 33.769 9.368 30.828 L 9.368 27.887 24.946 27.887 L 40.523 27.887 40.523 23.094 L 40.523 18.301 20.261 18.301 L 0.000 18.301 0.000 30.828 L 0.000 43.355 24.673 43.347 L 49.346 43.339 56.297 31.253 L 63.248 19.167 63.606 19.769 C 63.803 20.100,66.946 25.546,70.590 31.871 L 77.216 43.372 97.377 43.309 L 117.538 43.246 119.281 42.652 C 124.572 40.850,126.821 36.868,126.514 29.847 C 126.246 23.726,124.027 20.492,118.954 18.828 C 117.893 18.479,116.589 18.421,107.516 18.313 C 98.137 18.202,97.228 18.159,96.700 17.800 C 95.177 16.766,95.177 13.735,96.700 12.701 C 97.239 12.335,98.240 12.305,111.924 12.249 L 126.571 12.189 126.630 7.741 L 126.688 3.293 135.675 14.110 L 144.662 24.928 144.662 34.142 L 144.662 43.355 149.346 43.355 L 154.031 43.355 154.031 34.122 L 154.031 24.888 163.181 13.876 C 168.214 7.819,172.331 2.807,172.331 2.739 C 172.331 2.670,169.558 2.614,166.169 2.614 L 160.007 2.614 155.113 8.519 C 152.420 11.766,150.018 14.668,149.774 14.968 L 149.331 15.512 144.001 9.060 L 138.671 2.608 117.102 2.678 C 93.285 2.755,94.369 2.693,91.474 4.154 C 84.023 7.915,84.023 22.586,91.474 26.347 C 94.066 27.655,94.575 27.710,105.605 27.859 L 115.677 27.996 116.266 28.585 C 117.030 29.350,117.243 31.348,116.676 32.444 C 115.977 33.795,116.291 33.769,100.449 33.769 L 86.070 33.769 86.009 36.531 L 85.948 39.292 74.717 19.824 C 68.540 9.117,63.393 0.327,63.279 0.291 C 63.165 0.256,58.023 8.988,51.852 19.696 M0.000 7.407 L 0.000 12.200 20.261 12.200 L 40.523 12.200 40.523 7.407 L 40.523 2.614 20.261 2.614 L 0.000 2.614 0.000 7.407 M180.392 2.834 C 173.789 3.476,169.695 6.726,168.043 12.636 C 167.368 15.049,167.451 31.238,168.149 33.652 C 170.174 40.647,174.280 43.070,184.544 43.329 L 189.895 43.464 192.568 46.460 L 195.242 49.455 201.690 49.455 L 208.137 49.455 207.704 48.965 C 207.467 48.696,205.889 46.946,204.200 45.077 L 201.127 41.680 202.536 40.754 C 207.008 37.814,207.952 34.715,207.952 22.985 C 207.952 10.624,206.669 7.157,201.087 4.429 C 197.749 2.797,188.279 2.067,180.392 2.834 M210.294 17.266 C 210.376 33.561,210.328 32.998,211.911 36.342 C 214.540 41.895,218.179 43.246,230.501 43.246 C 242.823 43.246,246.462 41.895,249.091 36.342 C 250.674 32.998,250.627 33.561,250.709 17.266 L 250.783 2.614 245.979 2.614 L 241.176 2.614 241.167 16.068 C 241.154 34.815,241.854 33.660,230.501 33.660 C 222.781 33.660,222.266 33.565,220.993 31.895 C 219.834 30.376,219.846 30.538,219.835 16.068 L 219.826 2.614 215.023 2.614 L 210.220 2.614 210.294 17.266 M338.780 7.407 L 338.780 12.200 346.514 12.200 L 354.248 12.200 354.248 27.778 L 354.248 43.355 359.041 43.355 L 363.834 43.355 363.834 27.778 L 363.834 12.200 371.569 12.200 L 379.303 12.200 379.303 7.407 L 379.303 2.614 359.041 2.614 L 338.780 2.614 338.780 7.407 M392.407 2.842 C 386.603 4.022,385.752 12.213,391.172 14.737 C 393.702 15.915,397.254 15.065,398.773 12.919 C 402.242 8.014,398.228 1.659,392.407 2.842 M396.227 4.913 C 399.565 6.870,399.283 11.708,395.733 13.393 C 393.258 14.567,389.983 13.022,389.194 10.307 C 387.992 6.172,392.489 2.723,396.227 4.913 M391.068 8.824 L 391.068 12.200 391.939 12.200 L 392.810 12.200 392.810 11.002 C 392.810 9.188,393.826 9.402,394.657 11.391 C 394.991 12.192,396.950 12.691,396.950 11.975 C 396.950 11.597,395.917 9.686,395.546 9.378 C 395.229 9.116,395.236 9.062,395.621 8.793 C 397.540 7.448,395.798 5.447,392.709 5.447 L 391.068 5.447 391.068 8.824 M394.234 7.429 C 394.406 7.974,394.216 8.197,393.410 8.396 C 392.839 8.537,392.810 8.506,392.810 7.758 C 392.810 6.808,393.953 6.544,394.234 7.429 M195.316 12.707 C 198.112 13.952,198.353 14.708,198.432 22.506 C 198.546 33.575,198.363 33.769,187.800 33.769 C 177.234 33.769,177.015 33.550,177.015 22.969 L 177.015 16.418 177.672 15.133 C 178.416 13.679,179.631 12.766,181.273 12.430 C 183.154 12.044,194.323 12.265,195.316 12.707 " stroke="none" fill="#000000" fill-rule="evenodd"></path></g></svg>