<svg id="svg" version="1.1" xmlns="http://www.w3.org/2000/svg" xmlns:xlink="http://www.w3.org/1999/xlink" width="400" height="49.45533769063181" viewBox="0, 0, 400,49.45533769063181"><g id="svgg"><path id="path0" d="M0.000 7.417 L 0.000 12.333 20.333 12.333 L 40.667 12.333 40.667 7.518 C 40.667 3.280,40.635 2.690,40.403 2.601 C 40.258 2.546,31.108 2.500,20.070 2.500 L 0.000 2.500 0.000 7.417 " stroke="none" fill="#1cdc44" fill-rule="evenodd"></path><path id="path1" d="M296.000 20.787 C 296.000 43.858,296.101 42.012,294.956 39.857 C 294.681 39.340,294.401 38.879,294.334 38.833 C 294.267 38.787,294.159 38.582,294.095 38.376 C 294.031 38.170,293.885 37.908,293.771 37.793 C 293.576 37.596,293.456 37.386,292.624 35.792 C 292.445 35.448,292.239 35.167,292.167 35.167 C 292.095 35.167,291.990 34.981,291.933 34.754 C 291.876 34.528,291.643 34.067,291.415 33.731 C 291.187 33.395,291.000 33.024,291.000 32.907 C 291.000 32.790,290.944 32.669,290.875 32.639 C 290.705 32.563,289.725 30.945,289.588 30.514 C 289.527 30.323,289.422 30.167,289.353 30.167 C 289.285 30.167,289.126 29.904,289.000 29.583 C 288.874 29.262,288.717 29.000,288.652 29.000 C 288.586 29.000,288.454 28.775,288.358 28.500 C 288.262 28.225,288.113 28.000,288.027 28.000 C 287.940 28.000,287.819 27.798,287.757 27.552 C 287.695 27.305,287.501 26.903,287.326 26.657 C 287.151 26.411,286.930 26.032,286.834 25.813 C 286.738 25.595,286.438 25.079,286.167 24.667 C 285.895 24.254,285.592 23.731,285.493 23.503 C 285.394 23.276,285.261 23.051,285.198 23.003 C 285.135 22.956,284.914 22.590,284.707 22.190 C 284.179 21.171,283.765 20.431,283.666 20.333 C 283.620 20.287,283.470 20.025,283.333 19.750 C 283.196 19.475,282.990 19.151,282.875 19.030 C 282.760 18.909,282.667 18.706,282.667 18.580 C 282.667 18.453,282.569 18.290,282.449 18.217 C 282.329 18.143,282.129 17.833,282.006 17.527 C 281.882 17.222,281.699 16.884,281.599 16.777 C 281.499 16.671,281.284 16.321,281.121 16.000 C 280.959 15.679,280.644 15.117,280.421 14.750 C 280.198 14.383,279.920 13.896,279.803 13.667 C 279.686 13.438,279.551 13.213,279.503 13.167 C 279.408 13.075,278.852 12.075,278.392 11.167 C 278.229 10.846,278.004 10.489,277.892 10.374 C 277.780 10.259,277.641 10.015,277.583 9.832 C 277.525 9.650,277.423 9.500,277.356 9.500 C 277.289 9.500,277.139 9.238,277.023 8.917 C 276.907 8.596,276.747 8.333,276.669 8.333 C 276.590 8.333,276.439 8.070,276.333 7.748 C 276.227 7.427,276.052 7.067,275.945 6.949 C 275.754 6.740,275.375 6.088,274.860 5.083 C 274.719 4.808,274.510 4.489,274.396 4.374 C 274.282 4.259,274.136 3.996,274.072 3.791 C 274.008 3.585,273.905 3.379,273.843 3.333 C 273.781 3.288,273.441 2.725,273.088 2.083 C 272.734 1.442,272.396 0.879,272.336 0.833 C 272.275 0.787,272.177 0.619,272.118 0.458 C 271.944 -0.012,271.398 0.107,271.167 0.667 C 271.053 0.942,270.909 1.167,270.847 1.167 C 270.784 1.167,270.639 1.429,270.523 1.750 C 270.407 2.071,270.247 2.333,270.169 2.333 C 270.090 2.333,269.936 2.605,269.827 2.936 C 269.718 3.267,269.487 3.680,269.314 3.853 C 269.141 4.025,269.000 4.279,269.000 4.417 C 269.000 4.554,268.931 4.667,268.847 4.667 C 268.763 4.667,268.565 5.004,268.408 5.417 C 268.250 5.829,268.061 6.167,267.988 6.167 C 267.915 6.167,267.760 6.429,267.644 6.750 C 267.528 7.071,267.378 7.333,267.311 7.333 C 267.244 7.333,267.142 7.483,267.084 7.666 C 267.026 7.848,266.889 8.092,266.781 8.207 C 266.672 8.322,266.433 8.710,266.250 9.069 C 265.477 10.584,265.287 10.921,265.166 11.000 C 265.095 11.046,264.914 11.346,264.763 11.667 C 264.320 12.606,263.959 13.231,263.722 13.469 C 263.600 13.590,263.455 13.872,263.399 14.095 C 263.343 14.318,263.238 14.500,263.165 14.500 C 263.092 14.500,262.894 14.837,262.725 15.249 C 262.555 15.662,262.370 15.999,262.312 15.999 C 262.254 16.000,262.114 16.225,262.000 16.500 C 261.886 16.775,261.735 17.000,261.665 17.000 C 261.594 17.000,261.490 17.182,261.434 17.405 C 261.379 17.628,261.239 17.909,261.125 18.030 C 261.010 18.151,260.767 18.544,260.583 18.903 C 260.034 19.980,259.756 20.479,259.533 20.789 C 259.280 21.141,258.955 21.706,258.549 22.500 C 258.384 22.821,258.175 23.166,258.083 23.266 C 257.992 23.367,257.654 23.963,257.333 24.592 C 257.012 25.221,256.661 25.833,256.553 25.952 C 256.444 26.071,256.308 26.318,256.250 26.501 C 256.192 26.684,256.088 26.833,256.020 26.833 C 255.951 26.833,255.793 27.096,255.667 27.417 C 255.541 27.738,255.384 28.000,255.319 28.000 C 255.253 28.000,255.113 28.206,255.007 28.458 C 254.901 28.710,254.612 29.265,254.365 29.691 C 252.949 32.137,252.667 32.653,252.667 32.805 C 252.667 32.897,252.610 32.997,252.542 33.028 C 252.371 33.103,251.391 34.721,251.255 35.152 C 251.194 35.344,251.088 35.500,251.020 35.500 C 250.951 35.500,250.793 35.762,250.667 36.083 C 250.541 36.404,250.382 36.667,250.313 36.667 C 250.245 36.667,250.138 36.835,250.075 37.042 C 250.012 37.248,249.865 37.529,249.748 37.667 C 249.538 37.914,248.439 39.870,247.874 41.000 C 247.714 41.321,247.498 41.639,247.394 41.706 C 247.289 41.774,247.157 42.018,247.099 42.248 C 247.041 42.478,246.920 42.667,246.830 42.667 C 246.740 42.667,246.667 42.817,246.667 43.000 C 246.667 43.327,246.778 43.333,252.219 43.333 L 257.771 43.333 258.112 42.872 C 258.300 42.618,258.506 42.243,258.571 42.038 C 258.636 41.834,258.754 41.667,258.834 41.667 C 258.913 41.667,259.073 41.404,259.189 41.083 C 259.305 40.762,259.449 40.500,259.508 40.500 C 259.567 40.500,259.757 40.181,259.928 39.792 C 260.100 39.402,260.286 39.046,260.341 39.000 C 260.396 38.954,260.491 38.804,260.551 38.667 C 260.612 38.529,261.073 37.742,261.575 36.917 C 262.078 36.092,262.612 35.135,262.763 34.792 C 262.913 34.448,263.092 34.167,263.159 34.167 C 263.227 34.167,263.407 33.885,263.559 33.542 C 263.837 32.911,264.346 31.987,264.500 31.833 C 264.646 31.687,265.168 30.774,265.548 30.000 C 265.751 29.587,266.010 29.151,266.125 29.030 C 266.240 28.909,266.333 28.745,266.333 28.667 C 266.333 28.588,266.427 28.425,266.542 28.304 C 266.656 28.182,266.900 27.790,267.083 27.430 C 267.633 26.354,267.911 25.855,268.134 25.544 C 268.427 25.136,268.776 24.519,269.091 23.851 C 269.238 23.539,269.465 23.178,269.595 23.047 C 269.726 22.917,269.879 22.628,269.934 22.405 C 269.990 22.182,270.096 22.000,270.168 22.000 C 270.241 22.000,270.439 21.663,270.608 21.251 C 270.778 20.838,270.964 20.501,271.021 20.501 C 271.079 20.500,271.219 20.275,271.333 20.000 C 271.596 19.366,271.804 19.366,272.025 20.000 C 272.121 20.275,272.258 20.500,272.329 20.500 C 272.401 20.500,272.558 20.744,272.679 21.042 C 272.799 21.340,272.946 21.621,273.005 21.667 C 273.064 21.712,273.401 22.275,273.755 22.917 C 274.108 23.558,274.445 24.121,274.504 24.167 C 274.562 24.212,274.716 24.494,274.846 24.792 C 274.975 25.090,275.138 25.333,275.207 25.333 C 275.277 25.333,275.333 25.446,275.333 25.583 C 275.333 25.721,275.476 25.976,275.650 26.150 C 275.824 26.324,276.020 26.643,276.084 26.859 C 276.148 27.074,276.363 27.512,276.562 27.833 C 277.040 28.602,277.204 28.881,277.937 30.167 C 278.277 30.762,278.599 31.287,278.652 31.333 C 278.706 31.379,278.919 31.743,279.126 32.143 C 279.714 33.278,280.074 33.909,280.186 34.000 C 280.242 34.046,280.341 34.252,280.405 34.457 C 280.469 34.663,280.617 34.926,280.732 35.042 C 280.959 35.268,281.288 35.839,281.830 36.945 C 282.017 37.327,282.226 37.665,282.294 37.695 C 282.361 37.725,282.548 38.012,282.709 38.333 C 282.870 38.654,283.226 39.292,283.500 39.750 C 283.774 40.208,284.050 40.696,284.112 40.833 C 284.175 40.971,284.273 41.121,284.330 41.167 C 284.387 41.212,284.568 41.512,284.731 41.833 C 284.894 42.154,285.138 42.623,285.273 42.875 L 285.518 43.333 295.509 43.333 L 305.500 43.333 305.500 31.917 C 305.500 25.637,305.537 20.500,305.583 20.500 C 305.629 20.500,305.817 20.631,306.000 20.792 C 306.183 20.952,306.469 21.196,306.635 21.333 C 306.802 21.471,307.396 21.977,307.956 22.458 C 308.516 22.940,309.018 23.333,309.072 23.333 C 309.127 23.333,309.478 23.615,309.854 23.958 C 310.759 24.787,311.432 25.379,311.701 25.583 C 312.214 25.974,313.601 27.103,313.849 27.333 C 313.997 27.471,314.362 27.771,314.660 28.000 C 314.958 28.229,315.513 28.696,315.893 29.037 C 316.273 29.379,316.628 29.660,316.684 29.662 C 316.739 29.665,317.005 29.873,317.275 30.125 C 317.545 30.377,318.090 30.846,318.487 31.167 C 318.884 31.488,319.334 31.863,319.487 32.000 C 319.639 32.137,320.136 32.547,320.590 32.911 C 321.045 33.274,321.477 33.668,321.550 33.786 C 321.623 33.904,321.757 34.000,321.846 34.000 C 321.936 34.000,322.251 34.221,322.546 34.491 C 322.842 34.761,323.430 35.267,323.854 35.616 C 324.278 35.965,324.944 36.512,325.334 36.833 C 325.724 37.154,326.255 37.604,326.513 37.833 C 326.771 38.063,327.193 38.413,327.450 38.612 C 328.151 39.155,329.126 39.952,330.121 40.795 C 330.417 41.045,330.942 41.490,331.288 41.783 C 331.634 42.076,332.292 42.623,332.750 43.000 C 333.208 43.376,333.825 43.905,334.120 44.176 C 334.416 44.446,334.703 44.667,334.758 44.667 C 334.814 44.667,335.084 44.892,335.359 45.167 C 335.634 45.442,335.966 45.667,336.096 45.667 C 336.227 45.667,336.333 45.742,336.333 45.833 C 336.333 45.925,336.408 46.000,336.500 46.000 C 336.610 46.000,336.667 38.638,336.667 24.247 L 336.667 2.495 331.792 2.539 L 326.917 2.583 326.833 14.000 C 326.777 21.699,326.696 25.333,326.583 25.161 C 326.445 24.948,325.576 24.209,324.534 23.417 C 324.414 23.325,324.075 23.042,323.783 22.787 C 323.490 22.532,323.137 22.227,323.000 22.108 C 322.862 21.990,322.413 21.636,322.001 21.321 C 321.588 21.007,321.153 20.619,321.033 20.458 C 320.913 20.298,320.741 20.167,320.652 20.167 C 320.563 20.167,320.249 19.904,319.954 19.583 C 319.660 19.262,319.338 19.000,319.240 19.000 C 319.141 19.000,318.906 18.831,318.718 18.625 C 318.339 18.209,316.911 16.992,316.557 16.782 C 316.432 16.709,316.152 16.484,315.934 16.282 C 315.716 16.081,315.248 15.676,314.894 15.381 C 314.540 15.086,313.990 14.617,313.671 14.339 C 313.353 14.061,313.046 13.833,312.990 13.833 C 312.934 13.833,312.557 13.535,312.152 13.170 C 311.748 12.805,311.269 12.374,311.088 12.212 C 310.907 12.049,310.420 11.657,310.005 11.340 C 309.590 11.023,309.166 10.685,309.064 10.590 C 308.962 10.495,308.518 10.117,308.078 9.750 C 307.638 9.383,307.099 8.915,306.881 8.708 C 306.663 8.502,306.418 8.333,306.335 8.333 C 306.253 8.333,306.088 8.202,305.968 8.042 C 305.848 7.881,305.467 7.539,305.122 7.281 C 304.776 7.023,304.289 6.633,304.038 6.414 C 303.601 6.032,303.340 5.810,302.250 4.896 C 301.975 4.665,301.490 4.275,301.172 4.030 C 300.854 3.784,300.467 3.471,300.312 3.333 C 300.157 3.196,299.716 2.821,299.333 2.500 C 298.950 2.179,298.365 1.673,298.034 1.375 C 297.702 1.077,297.375 0.833,297.306 0.833 C 297.238 0.833,296.994 0.646,296.765 0.417 C 296.536 0.188,296.270 0.000,296.174 0.000 C 296.054 0.000,296.000 6.438,296.000 20.787 M62.655 0.641 C 61.957 2.031,61.732 2.436,61.553 2.626 C 61.444 2.741,61.303 3.004,61.238 3.209 C 61.174 3.415,61.069 3.621,61.005 3.667 C 60.941 3.712,60.599 4.275,60.245 4.917 C 59.892 5.558,59.561 6.121,59.510 6.167 C 59.458 6.212,59.304 6.475,59.167 6.750 C 59.029 7.025,58.872 7.287,58.818 7.333 C 58.719 7.416,58.466 7.868,57.883 9.000 C 57.718 9.321,57.496 9.676,57.388 9.790 C 57.281 9.904,57.107 10.260,57.001 10.582 C 56.894 10.903,56.743 11.167,56.665 11.167 C 56.586 11.167,56.427 11.429,56.311 11.750 C 56.195 12.071,56.045 12.333,55.978 12.333 C 55.911 12.333,55.808 12.483,55.750 12.666 C 55.692 12.848,55.553 13.092,55.441 13.207 C 55.329 13.322,55.104 13.679,54.942 14.000 C 54.402 15.066,53.918 15.916,53.802 16.003 C 53.739 16.051,53.604 16.276,53.502 16.503 C 53.400 16.731,53.134 17.217,52.912 17.583 C 52.689 17.950,52.374 18.512,52.212 18.833 C 52.049 19.154,51.835 19.504,51.734 19.611 C 51.634 19.718,51.451 20.055,51.328 20.361 C 51.204 20.667,51.005 20.977,50.885 21.050 C 50.765 21.123,50.667 21.287,50.667 21.413 C 50.667 21.539,50.573 21.742,50.458 21.863 C 50.344 21.984,50.138 22.308,50.000 22.583 C 49.863 22.858,49.713 23.121,49.667 23.167 C 49.569 23.264,49.154 24.005,48.626 25.024 C 48.419 25.423,48.198 25.789,48.135 25.837 C 48.072 25.884,47.940 26.109,47.840 26.337 C 47.741 26.564,47.438 27.087,47.167 27.500 C 46.895 27.912,46.595 28.429,46.499 28.647 C 46.403 28.865,46.187 29.240,46.018 29.480 C 45.849 29.720,45.656 30.093,45.589 30.308 C 45.522 30.523,45.324 30.842,45.150 31.016 C 44.976 31.191,44.833 31.446,44.833 31.583 C 44.833 31.721,44.772 31.833,44.698 31.833 C 44.623 31.833,44.459 32.096,44.333 32.417 C 44.207 32.738,44.049 33.000,43.980 33.000 C 43.912 33.000,43.806 33.156,43.745 33.348 C 43.609 33.779,42.629 35.397,42.458 35.472 C 42.390 35.503,42.333 35.624,42.333 35.741 C 42.333 35.858,42.153 36.219,41.933 36.543 C 41.713 36.867,41.481 37.297,41.417 37.499 C 40.934 39.019,40.676 38.540,40.629 36.037 L 40.583 33.583 25.042 33.541 L 9.500 33.498 9.500 30.750 L 9.500 28.002 25.042 27.959 L 40.583 27.917 40.628 23.042 L 40.672 18.167 20.336 18.167 L 0.000 18.167 0.000 30.750 L 0.000 43.333 24.750 43.333 C 45.992 43.333,49.500 43.300,49.500 43.097 C 49.500 42.967,49.563 42.836,49.641 42.806 C 49.776 42.752,49.961 42.442,50.617 41.167 C 50.782 40.846,50.963 40.546,51.019 40.500 C 51.076 40.454,51.284 40.117,51.481 39.750 C 51.679 39.383,52.063 38.708,52.336 38.250 C 52.609 37.792,52.883 37.304,52.945 37.167 C 53.008 37.029,53.102 36.879,53.155 36.833 C 53.258 36.743,53.801 35.772,54.273 34.833 C 54.434 34.512,54.621 34.211,54.689 34.163 C 54.757 34.116,54.894 33.891,54.993 33.663 C 55.092 33.436,55.395 32.912,55.667 32.500 C 55.938 32.087,56.238 31.572,56.333 31.355 C 56.429 31.138,56.650 30.779,56.825 30.556 C 57.000 30.333,57.192 29.930,57.252 29.659 C 57.311 29.388,57.433 29.167,57.522 29.167 C 57.611 29.167,57.762 28.942,57.858 28.667 C 57.954 28.392,58.082 28.167,58.142 28.167 C 58.203 28.167,58.358 27.923,58.488 27.625 C 58.617 27.327,58.773 27.046,58.834 27.000 C 58.895 26.954,59.234 26.392,59.588 25.750 C 59.941 25.108,60.281 24.546,60.343 24.500 C 60.405 24.454,60.513 24.231,60.584 24.003 C 60.655 23.776,60.853 23.382,61.023 23.128 C 61.194 22.874,61.473 22.459,61.643 22.205 C 61.814 21.951,62.006 21.576,62.071 21.372 C 62.136 21.167,62.244 21.000,62.310 21.000 C 62.377 21.000,62.571 20.662,62.741 20.250 C 63.089 19.405,63.235 19.335,63.519 19.875 C 63.628 20.081,63.762 20.287,63.817 20.333 C 63.872 20.379,64.052 20.679,64.217 21.000 C 64.798 22.131,65.052 22.584,65.151 22.667 C 65.258 22.757,65.809 23.726,66.287 24.667 C 66.450 24.988,66.672 25.344,66.781 25.459 C 66.889 25.574,67.026 25.818,67.084 26.001 C 67.142 26.184,67.251 26.333,67.326 26.333 C 67.402 26.333,67.510 26.516,67.566 26.738 C 67.621 26.961,67.762 27.242,67.878 27.363 C 67.994 27.484,68.231 27.902,68.403 28.292 C 68.576 28.681,68.773 29.000,68.841 29.000 C 68.908 29.000,69.007 29.174,69.061 29.386 C 69.114 29.598,69.310 29.947,69.495 30.161 C 69.681 30.376,69.833 30.647,69.833 30.764 C 69.833 30.881,69.940 31.083,70.070 31.213 C 70.201 31.343,70.444 31.720,70.612 32.051 C 71.039 32.893,72.870 36.066,72.987 36.167 C 73.040 36.212,73.233 36.544,73.417 36.903 C 73.966 37.980,74.244 38.479,74.467 38.789 C 74.720 39.141,75.045 39.706,75.451 40.500 C 75.616 40.821,75.803 41.123,75.868 41.172 C 75.933 41.221,76.086 41.483,76.209 41.755 C 76.332 42.027,76.579 42.493,76.758 42.791 L 77.083 43.331 96.333 43.331 C 114.628 43.331,118.233 43.253,118.739 42.847 C 118.837 42.769,119.179 42.650,119.500 42.584 C 120.260 42.425,121.833 41.686,121.833 41.488 C 121.833 41.403,121.927 41.333,122.042 41.332 C 122.975 41.324,125.561 37.979,125.917 36.319 C 125.984 36.006,126.098 35.675,126.171 35.583 C 126.795 34.802,126.797 26.713,126.174 25.917 C 126.102 25.825,125.951 25.356,125.839 24.875 C 125.726 24.394,125.571 24.000,125.495 24.000 C 125.418 24.000,125.306 23.831,125.245 23.625 C 124.859 22.325,122.508 19.974,121.208 19.589 C 121.002 19.528,120.833 19.415,120.833 19.339 C 120.833 19.262,120.440 19.106,119.958 18.990 C 119.477 18.875,118.821 18.662,118.500 18.517 C 117.994 18.288,116.532 18.241,107.535 18.168 C 100.253 18.109,97.119 18.029,97.035 17.900 C 96.970 17.799,96.755 17.631,96.557 17.527 C 96.071 17.272,95.404 15.256,95.642 14.761 C 95.733 14.572,95.851 14.214,95.905 13.965 C 96.263 12.311,95.956 12.342,112.372 12.337 L 126.661 12.333 126.706 7.962 C 126.745 4.053,126.776 3.623,127.000 3.888 C 127.138 4.051,127.438 4.404,127.667 4.672 C 127.896 4.940,128.325 5.442,128.621 5.788 C 128.917 6.134,129.569 6.924,130.071 7.545 C 130.572 8.166,131.080 8.785,131.200 8.921 C 131.319 9.058,131.604 9.397,131.833 9.676 C 132.063 9.955,132.531 10.485,132.875 10.855 C 133.219 11.224,133.500 11.580,133.500 11.645 C 133.500 11.710,133.744 12.027,134.042 12.349 C 134.340 12.670,134.846 13.257,135.167 13.651 C 135.487 14.046,135.900 14.543,136.083 14.757 C 137.275 16.145,137.769 16.749,137.902 16.983 C 137.986 17.130,138.211 17.410,138.402 17.607 C 138.594 17.803,138.992 18.253,139.287 18.607 C 139.773 19.187,141.501 21.278,141.917 21.786 C 142.318 22.276,143.445 23.591,143.750 23.924 C 144.517 24.761,144.500 24.531,144.500 34.164 L 144.500 43.333 149.333 43.333 L 154.167 43.333 154.167 34.156 C 154.167 24.676,154.165 24.698,154.879 23.954 C 155.360 23.452,156.305 22.347,156.833 21.667 C 157.063 21.372,157.529 20.820,157.871 20.441 C 158.212 20.061,158.493 19.705,158.496 19.650 C 158.498 19.595,158.706 19.329,158.958 19.059 C 159.210 18.789,159.679 18.243,160.000 17.846 C 160.321 17.449,160.696 16.998,160.833 16.843 C 161.878 15.671,162.833 14.507,162.833 14.407 C 162.833 14.342,163.002 14.124,163.208 13.923 C 163.703 13.442,164.902 12.041,165.973 10.690 C 166.217 10.383,166.567 9.961,166.750 9.753 C 166.933 9.545,167.346 9.055,167.667 8.663 C 167.987 8.271,168.494 7.683,168.792 7.357 C 169.090 7.031,169.333 6.711,169.333 6.646 C 169.333 6.582,169.599 6.241,169.923 5.889 C 171.198 4.508,171.333 4.351,171.333 4.252 C 171.333 4.196,171.598 3.878,171.921 3.545 C 172.867 2.570,172.965 2.587,166.132 2.540 L 159.874 2.496 159.604 2.909 C 159.455 3.136,159.127 3.541,158.875 3.807 C 158.623 4.074,158.192 4.576,157.917 4.923 C 157.642 5.270,157.154 5.870,156.833 6.256 C 156.512 6.642,155.987 7.277,155.667 7.667 C 155.346 8.057,154.878 8.611,154.628 8.897 C 154.377 9.183,154.077 9.534,153.961 9.677 C 153.845 9.820,153.356 10.396,152.875 10.956 C 152.394 11.516,152.000 12.014,152.000 12.063 C 152.000 12.112,151.831 12.330,151.625 12.548 C 151.419 12.766,150.973 13.276,150.635 13.680 C 150.297 14.085,149.866 14.597,149.677 14.817 L 149.334 15.216 148.959 14.783 C 148.752 14.544,148.321 14.035,148.000 13.652 C 147.679 13.269,147.252 12.760,147.050 12.520 C 146.848 12.280,146.375 11.708,145.999 11.250 C 145.623 10.792,145.095 10.175,144.824 9.880 C 144.554 9.584,144.333 9.301,144.333 9.250 C 144.333 9.199,144.112 8.916,143.842 8.620 C 143.572 8.325,143.043 7.708,142.667 7.250 C 142.291 6.792,141.725 6.117,141.410 5.750 C 141.095 5.383,140.686 4.896,140.501 4.667 C 140.316 4.438,139.969 4.025,139.730 3.750 C 139.492 3.475,139.160 3.078,138.993 2.867 L 138.689 2.484 117.005 2.534 C 101.437 2.569,95.288 2.635,95.202 2.767 C 95.137 2.868,94.676 3.004,94.178 3.069 C 93.034 3.217,90.868 4.141,89.943 4.874 C 88.790 5.789,87.680 7.150,87.428 7.958 C 87.364 8.165,87.246 8.333,87.167 8.333 C 87.088 8.333,86.932 8.746,86.819 9.250 C 86.706 9.754,86.560 10.167,86.494 10.167 C 86.251 10.167,86.000 12.752,86.000 15.250 C 86.000 17.798,86.252 20.333,86.506 20.333 C 86.578 20.333,86.688 20.635,86.751 21.003 C 86.813 21.372,86.957 21.767,87.072 21.881 C 87.186 21.996,87.348 22.286,87.432 22.526 C 87.853 23.737,90.148 26.026,91.166 26.250 C 91.441 26.310,91.667 26.426,91.667 26.507 C 91.667 26.587,91.985 26.744,92.375 26.856 C 92.765 26.967,93.158 27.112,93.250 27.177 C 93.941 27.667,97.503 27.879,106.782 27.984 L 115.647 28.083 116.172 28.621 C 117.027 29.495,117.092 31.791,116.288 32.718 C 115.604 33.507,115.754 33.500,100.489 33.500 L 86.000 33.500 86.000 36.167 C 86.000 38.972,85.934 39.218,85.454 38.207 C 84.919 37.081,84.463 36.251,84.332 36.167 C 84.262 36.121,84.080 35.821,83.929 35.500 C 83.543 34.679,83.133 33.931,83.016 33.833 C 82.961 33.787,82.804 33.525,82.666 33.250 C 82.529 32.975,82.323 32.651,82.208 32.530 C 82.094 32.409,82.000 32.245,82.000 32.166 C 82.000 32.013,80.989 30.307,80.815 30.167 C 80.758 30.121,80.659 29.915,80.595 29.709 C 80.531 29.504,80.389 29.241,80.281 29.126 C 80.172 29.011,79.952 28.654,79.791 28.333 C 79.630 28.012,79.273 27.375,78.999 26.917 C 78.724 26.458,78.417 25.877,78.316 25.625 C 78.216 25.373,78.071 25.167,77.994 25.167 C 77.918 25.167,77.760 24.904,77.644 24.583 C 77.528 24.262,77.378 24.000,77.311 24.000 C 77.244 24.000,77.142 23.850,77.084 23.668 C 77.026 23.485,76.889 23.238,76.781 23.119 C 76.672 23.000,76.284 22.325,75.918 21.618 C 75.552 20.911,75.204 20.333,75.144 20.333 C 75.085 20.333,74.993 20.160,74.939 19.947 C 74.886 19.735,74.690 19.386,74.505 19.172 C 74.319 18.958,74.167 18.687,74.167 18.570 C 74.167 18.453,74.060 18.251,73.930 18.120 C 73.704 17.895,73.507 17.553,72.750 16.069 C 72.567 15.710,72.379 15.379,72.333 15.333 C 72.138 15.140,71.167 13.465,71.167 13.322 C 71.167 13.237,71.110 13.166,71.042 13.166 C 70.973 13.166,70.778 12.828,70.608 12.416 C 70.439 12.004,70.241 11.667,70.168 11.667 C 70.096 11.667,69.990 11.484,69.934 11.262 C 69.879 11.039,69.733 10.757,69.612 10.635 C 69.396 10.419,69.162 10.022,68.550 8.833 C 68.385 8.512,68.203 8.212,68.145 8.167 C 68.087 8.121,67.899 7.807,67.728 7.469 C 67.279 6.584,66.130 4.598,66.010 4.500 C 65.953 4.454,65.767 4.098,65.595 3.708 C 65.423 3.319,65.233 3.000,65.172 3.000 C 65.112 3.000,64.959 2.737,64.833 2.417 C 64.707 2.096,64.551 1.833,64.485 1.833 C 64.420 1.833,64.288 1.608,64.192 1.333 C 64.096 1.058,63.947 0.833,63.861 0.833 C 63.776 0.833,63.666 0.683,63.618 0.500 C 63.489 0.007,62.933 0.089,62.655 0.641 M180.833 2.608 C 180.237 2.643,179.600 2.740,179.417 2.823 C 179.233 2.907,178.465 3.065,177.708 3.175 C 176.952 3.284,176.333 3.424,176.333 3.484 C 176.333 3.544,175.977 3.696,175.542 3.822 C 174.734 4.054,173.295 4.798,173.194 5.035 C 173.164 5.108,173.049 5.167,172.940 5.167 C 172.758 5.167,172.532 5.344,171.125 6.589 C 170.873 6.812,170.667 7.057,170.667 7.134 C 170.667 7.211,170.481 7.435,170.254 7.632 C 170.028 7.829,169.795 8.180,169.736 8.412 C 169.678 8.644,169.569 8.833,169.494 8.833 C 169.315 8.833,168.553 10.505,168.329 11.390 C 168.232 11.771,168.083 12.233,167.999 12.417 C 167.514 13.464,167.250 28.978,167.668 31.865 C 167.937 33.727,168.884 36.379,169.657 37.439 C 169.800 37.635,170.029 37.964,170.167 38.171 C 170.569 38.777,172.094 40.333,172.284 40.333 C 172.380 40.333,172.549 40.442,172.660 40.575 C 172.902 40.866,174.419 41.736,175.000 41.916 C 175.229 41.987,175.454 42.100,175.500 42.168 C 175.546 42.235,176.108 42.417,176.750 42.572 C 177.392 42.727,178.179 42.930,178.500 43.024 C 178.821 43.118,181.408 43.229,184.250 43.271 C 189.792 43.353,190.167 43.383,190.167 43.738 C 190.167 43.866,190.560 44.384,191.042 44.890 C 191.523 45.396,192.329 46.278,192.833 46.851 C 193.338 47.424,194.063 48.216,194.445 48.613 L 195.140 49.333 201.654 49.333 C 207.813 49.333,208.581 49.278,207.956 48.883 C 207.839 48.810,207.531 48.487,207.271 48.167 C 207.010 47.846,206.383 47.133,205.877 46.583 C 205.372 46.033,204.536 45.114,204.021 44.540 C 203.505 43.967,202.690 43.084,202.208 42.578 C 201.190 41.508,201.160 41.398,201.845 41.248 C 202.126 41.186,202.396 41.030,202.446 40.901 C 202.495 40.772,202.621 40.666,202.726 40.666 C 202.991 40.664,204.833 39.009,204.833 38.773 C 204.833 38.667,204.983 38.487,205.167 38.372 C 205.350 38.258,205.500 38.052,205.500 37.915 C 205.500 37.779,205.579 37.667,205.675 37.667 C 205.772 37.667,205.929 37.442,206.025 37.167 C 206.121 36.892,206.255 36.667,206.323 36.667 C 206.390 36.667,206.589 36.235,206.764 35.708 C 206.939 35.181,207.136 34.710,207.202 34.660 C 207.268 34.611,207.416 34.011,207.530 33.327 C 207.644 32.643,207.815 32.030,207.910 31.964 C 208.163 31.791,208.148 14.522,207.896 13.984 C 207.792 13.763,207.617 13.096,207.506 12.500 C 207.395 11.904,207.245 11.342,207.174 11.250 C 207.102 11.158,206.951 10.783,206.838 10.417 C 206.724 10.050,206.452 9.470,206.233 9.129 C 206.013 8.787,205.833 8.465,205.833 8.413 C 205.833 8.154,203.122 5.333,202.872 5.333 C 202.768 5.333,202.623 5.240,202.550 5.125 C 202.382 4.862,200.415 3.886,199.750 3.734 C 199.475 3.672,199.175 3.565,199.083 3.496 C 198.858 3.328,197.264 3.000,196.672 3.000 C 196.410 3.000,196.164 2.910,196.127 2.799 C 196.062 2.602,183.583 2.446,180.833 2.608 M210.167 16.292 C 210.168 29.387,210.266 32.746,210.665 33.250 C 210.737 33.342,210.892 33.848,211.008 34.375 C 211.124 34.902,211.266 35.333,211.323 35.333 C 211.381 35.333,211.527 35.671,211.649 36.083 C 211.770 36.496,211.932 36.833,212.007 36.833 C 212.083 36.833,212.190 36.977,212.245 37.152 C 212.343 37.458,212.926 38.268,213.711 39.185 C 214.202 39.759,215.983 41.090,216.458 41.239 C 216.665 41.303,216.833 41.426,216.833 41.511 C 216.833 41.597,216.930 41.667,217.048 41.667 C 217.166 41.667,217.560 41.820,217.923 42.008 C 218.286 42.195,219.033 42.464,219.583 42.603 C 220.133 42.743,220.921 42.943,221.333 43.048 C 222.378 43.313,238.622 43.313,239.667 43.048 C 240.079 42.943,240.867 42.743,241.417 42.603 C 241.967 42.464,242.714 42.195,243.077 42.008 C 243.440 41.820,243.834 41.667,243.952 41.667 C 244.070 41.667,244.167 41.597,244.167 41.511 C 244.167 41.426,244.335 41.303,244.542 41.239 C 245.017 41.090,246.798 39.759,247.289 39.185 C 248.074 38.268,248.657 37.458,248.755 37.152 C 248.810 36.977,248.916 36.833,248.990 36.833 C 249.063 36.833,249.218 36.496,249.333 36.083 C 249.449 35.671,249.597 35.333,249.662 35.333 C 249.727 35.333,249.876 34.902,249.992 34.375 C 250.108 33.848,250.268 33.337,250.347 33.239 C 250.732 32.761,250.831 29.307,250.832 16.292 L 250.833 2.500 246.104 2.500 C 242.393 2.500,241.335 2.547,241.192 2.720 C 241.064 2.874,240.996 6.994,240.963 16.511 C 240.926 27.211,240.871 30.172,240.701 30.500 C 240.131 31.603,239.844 31.941,238.741 32.814 C 238.054 33.357,237.236 33.417,230.500 33.417 C 223.764 33.417,222.946 33.357,222.259 32.814 C 221.156 31.941,220.869 31.603,220.299 30.500 C 220.129 30.172,220.074 27.211,220.037 16.511 C 220.004 6.994,219.936 2.874,219.808 2.720 C 219.665 2.547,218.607 2.500,214.896 2.500 L 210.167 2.500 210.167 16.292 M338.667 7.417 L 338.667 12.333 346.417 12.333 L 354.167 12.333 354.167 27.833 L 354.167 43.333 359.083 43.333 L 364.000 43.333 364.000 27.833 L 364.000 12.333 371.667 12.333 L 379.333 12.333 379.333 7.417 L 379.333 2.500 359.000 2.500 L 338.667 2.500 338.667 7.417 M392.667 2.617 C 392.347 2.659,392.009 2.749,391.917 2.817 C 391.825 2.885,391.431 3.040,391.042 3.163 C 390.652 3.286,390.333 3.452,390.333 3.531 C 390.333 3.610,390.155 3.743,389.938 3.825 C 389.460 4.007,388.510 5.142,387.981 6.161 C 387.360 7.360,387.370 11.833,387.994 11.833 C 388.069 11.833,388.174 12.006,388.227 12.216 C 388.365 12.766,390.105 14.367,391.083 14.844 C 391.998 15.290,395.867 15.466,396.131 15.074 C 396.197 14.977,396.512 14.793,396.833 14.664 C 397.332 14.464,398.673 13.259,399.263 12.479 C 399.966 11.552,400.258 8.234,399.776 6.651 C 399.291 5.057,397.668 3.407,396.250 3.068 C 395.975 3.002,395.712 2.894,395.667 2.828 C 395.558 2.669,393.415 2.519,392.667 2.617 M394.592 4.305 C 394.679 4.381,395.069 4.534,395.458 4.645 C 395.848 4.756,396.167 4.919,396.167 5.007 C 396.167 5.095,396.271 5.167,396.399 5.167 C 396.613 5.167,397.127 5.695,397.879 6.688 C 398.042 6.903,398.220 7.361,398.276 7.706 C 398.331 8.051,398.441 8.333,398.521 8.333 C 398.711 8.333,398.711 9.453,398.522 9.570 C 398.442 9.619,398.330 9.955,398.272 10.317 C 398.214 10.678,397.979 11.197,397.750 11.469 C 397.521 11.742,397.333 12.048,397.333 12.149 C 397.333 12.250,397.269 12.333,397.190 12.333 C 397.111 12.333,396.763 12.558,396.417 12.833 C 396.071 13.108,395.654 13.333,395.491 13.333 C 395.328 13.333,395.167 13.415,395.134 13.516 C 395.057 13.746,392.673 13.777,392.524 13.549 C 392.465 13.459,392.212 13.335,391.963 13.274 C 391.713 13.213,391.376 13.026,391.213 12.858 C 391.050 12.690,390.785 12.506,390.625 12.449 C 390.465 12.391,390.333 12.229,390.333 12.089 C 390.333 11.948,390.259 11.833,390.167 11.833 C 389.505 11.833,388.692 7.934,389.268 7.526 C 389.354 7.466,389.516 7.206,389.630 6.948 C 389.870 6.401,390.693 5.333,390.875 5.333 C 390.944 5.333,391.000 6.908,391.000 8.833 L 391.000 12.333 392.000 12.333 L 393.000 12.333 393.000 11.083 C 393.000 10.231,393.063 9.833,393.198 9.833 C 393.472 9.833,394.167 10.511,394.167 10.779 C 394.167 10.901,394.239 11.000,394.327 11.000 C 394.415 11.000,394.577 11.300,394.686 11.667 L 394.886 12.333 395.943 12.333 C 396.917 12.333,397.000 12.305,397.000 11.972 C 397.000 11.543,396.088 9.614,395.755 9.337 C 395.559 9.175,395.571 9.095,395.835 8.831 C 396.485 8.182,396.428 6.311,395.748 5.933 C 395.566 5.833,395.367 5.681,395.306 5.597 C 395.245 5.512,394.291 5.400,393.186 5.347 C 390.973 5.240,390.690 5.010,392.302 4.627 C 392.778 4.514,393.167 4.364,393.167 4.294 C 393.167 4.122,394.393 4.131,394.592 4.305 M394.101 7.429 C 394.225 7.923,394.098 8.081,393.458 8.232 C 393.016 8.336,393.000 8.316,393.000 7.670 C 393.000 6.822,393.900 6.625,394.101 7.429 M194.076 12.507 C 194.714 12.600,195.276 12.738,195.326 12.815 C 195.376 12.892,195.570 13.003,195.757 13.061 C 196.318 13.236,197.296 14.268,197.788 15.205 L 198.250 16.083 198.303 22.500 C 198.355 28.692,198.231 30.833,197.822 30.833 C 197.749 30.833,197.645 30.971,197.592 31.140 C 197.460 31.555,196.601 32.500,196.355 32.500 C 196.246 32.500,196.115 32.608,196.064 32.740 C 195.671 33.765,180.039 33.867,179.699 32.847 C 179.666 32.748,179.539 32.667,179.417 32.667 C 179.047 32.667,177.845 31.164,177.633 30.434 C 177.523 30.058,177.354 29.696,177.258 29.631 C 177.022 29.470,177.015 16.370,177.251 16.202 C 177.343 16.137,177.522 15.788,177.648 15.428 C 177.774 15.068,177.961 14.667,178.063 14.538 C 178.938 13.439,180.016 12.776,181.355 12.513 C 182.386 12.310,192.682 12.306,194.076 12.507 " stroke="none" fill="#041454" fill-rule="evenodd"></path></g></svg>