<svg id="svg" version="1.1" xmlns="http://www.w3.org/2000/svg" xmlns:xlink="http://www.w3.org/1999/xlink" width="400" height="49.45533769063181" viewBox="0, 0, 400,49.45533769063181"><g id="svgg"><path id="path0" d="M296.000 20.787 C 296.000 40.592,295.986 41.555,295.710 41.162 C 295.321 40.610,294.895 39.851,294.660 39.292 C 294.554 39.040,294.418 38.833,294.358 38.833 C 294.297 38.833,294.142 38.590,294.012 38.292 C 293.883 37.994,293.727 37.712,293.667 37.667 C 293.607 37.621,293.421 37.321,293.254 37.000 C 293.087 36.679,292.804 36.135,292.624 35.792 C 292.445 35.448,292.239 35.167,292.167 35.167 C 292.095 35.167,291.987 34.972,291.927 34.733 C 291.868 34.495,291.683 34.101,291.517 33.858 C 291.012 33.120,290.595 32.439,290.381 32.000 C 290.269 31.771,289.988 31.283,289.757 30.917 C 289.525 30.550,289.204 29.988,289.043 29.667 C 288.882 29.346,288.656 28.984,288.542 28.863 C 288.427 28.742,288.333 28.533,288.333 28.400 C 288.333 28.266,288.228 28.116,288.098 28.066 C 287.969 28.016,287.815 27.784,287.756 27.550 C 287.698 27.316,287.466 26.854,287.241 26.523 C 287.017 26.193,286.833 25.831,286.833 25.720 C 286.833 25.608,286.740 25.457,286.625 25.383 C 286.510 25.310,286.285 24.988,286.123 24.667 C 285.962 24.346,285.681 23.858,285.501 23.583 C 285.131 23.022,284.581 22.046,284.083 21.070 C 283.900 20.711,283.712 20.379,283.666 20.333 C 283.620 20.287,283.470 20.025,283.333 19.750 C 283.196 19.475,282.990 19.151,282.875 19.030 C 282.760 18.909,282.667 18.706,282.667 18.580 C 282.667 18.453,282.571 18.290,282.454 18.217 C 282.336 18.143,282.100 17.765,281.928 17.375 C 281.757 16.985,281.561 16.667,281.493 16.667 C 281.425 16.667,281.324 16.484,281.268 16.262 C 281.212 16.039,281.059 15.750,280.929 15.619 C 280.798 15.489,280.572 15.127,280.426 14.816 C 280.135 14.195,279.631 13.298,279.500 13.167 C 279.402 13.069,278.804 12.000,278.380 11.167 C 278.217 10.846,277.994 10.489,277.886 10.374 C 277.777 10.259,277.641 10.015,277.583 9.832 C 277.525 9.650,277.423 9.500,277.356 9.500 C 277.289 9.500,277.139 9.238,277.023 8.917 C 276.907 8.596,276.752 8.333,276.679 8.333 C 276.605 8.333,276.416 7.996,276.259 7.583 C 276.101 7.171,275.904 6.833,275.820 6.833 C 275.735 6.833,275.667 6.721,275.667 6.583 C 275.667 6.446,275.525 6.192,275.353 6.019 C 275.180 5.847,274.951 5.441,274.845 5.117 C 274.738 4.794,274.551 4.491,274.430 4.445 C 274.309 4.398,274.156 4.149,274.092 3.890 C 274.027 3.632,273.919 3.382,273.852 3.335 C 273.785 3.288,273.441 2.725,273.088 2.083 C 272.734 1.442,272.396 0.879,272.336 0.833 C 272.275 0.787,272.177 0.619,272.118 0.458 C 271.942 -0.020,271.388 0.105,271.192 0.667 C 271.096 0.942,270.954 1.167,270.875 1.167 C 270.797 1.167,270.639 1.429,270.523 1.750 C 270.407 2.071,270.257 2.333,270.189 2.333 C 270.122 2.333,269.969 2.603,269.850 2.934 C 269.731 3.264,269.490 3.676,269.316 3.850 C 269.142 4.024,269.000 4.279,269.000 4.417 C 269.000 4.554,268.940 4.667,268.868 4.667 C 268.795 4.667,268.596 5.004,268.426 5.417 C 268.256 5.829,268.058 6.167,267.986 6.167 C 267.914 6.167,267.760 6.429,267.644 6.750 C 267.528 7.071,267.378 7.333,267.311 7.333 C 267.244 7.333,267.142 7.483,267.084 7.666 C 267.026 7.848,266.889 8.092,266.781 8.207 C 266.672 8.322,266.453 8.679,266.293 9.000 C 266.133 9.321,265.927 9.696,265.834 9.833 C 265.742 9.971,265.590 10.271,265.497 10.500 C 265.403 10.729,265.104 11.254,264.831 11.667 C 264.559 12.079,264.253 12.623,264.152 12.875 C 264.050 13.127,263.914 13.333,263.848 13.333 C 263.783 13.333,263.626 13.596,263.500 13.917 C 263.374 14.237,263.218 14.500,263.152 14.500 C 263.087 14.500,262.894 14.837,262.725 15.249 C 262.555 15.662,262.370 15.999,262.312 15.999 C 262.254 16.000,262.114 16.225,262.000 16.500 C 261.886 16.775,261.735 17.000,261.665 17.000 C 261.594 17.000,261.490 17.182,261.434 17.405 C 261.379 17.628,261.239 17.909,261.125 18.030 C 261.010 18.151,260.767 18.544,260.583 18.903 C 259.774 20.487,259.621 20.753,259.491 20.802 C 259.414 20.831,259.267 21.113,259.163 21.427 C 259.059 21.742,258.914 22.000,258.841 22.000 C 258.767 22.000,258.609 22.244,258.488 22.542 C 258.368 22.840,258.227 23.121,258.176 23.167 C 258.052 23.278,257.387 24.443,257.034 25.167 C 256.878 25.488,256.661 25.844,256.553 25.959 C 256.444 26.074,256.308 26.318,256.250 26.501 C 256.192 26.684,256.089 26.833,256.022 26.833 C 255.955 26.833,255.805 27.096,255.689 27.417 C 255.573 27.737,255.416 28.000,255.339 28.000 C 255.262 28.000,255.116 28.206,255.014 28.458 C 254.912 28.710,254.568 29.367,254.250 29.917 C 253.931 30.467,253.578 31.123,253.465 31.375 C 253.353 31.627,253.211 31.833,253.150 31.833 C 253.090 31.833,252.942 32.077,252.821 32.375 C 252.701 32.673,252.552 32.954,252.490 33.000 C 252.390 33.074,252.115 33.552,251.349 34.980 C 251.221 35.220,251.065 35.454,251.003 35.500 C 250.941 35.546,250.784 35.827,250.654 36.125 C 250.525 36.423,250.368 36.667,250.306 36.667 C 250.243 36.667,250.106 36.929,250.000 37.250 C 249.894 37.571,249.743 37.833,249.665 37.833 C 249.586 37.833,249.427 38.096,249.311 38.417 C 249.195 38.737,249.046 39.000,248.980 39.000 C 248.915 39.000,248.732 39.338,248.574 39.750 C 248.417 40.163,248.228 40.500,248.155 40.500 C 248.082 40.500,247.927 40.762,247.811 41.083 C 247.695 41.404,247.536 41.667,247.458 41.667 C 247.380 41.667,247.238 41.892,247.142 42.167 C 247.046 42.442,246.900 42.667,246.817 42.667 C 246.734 42.667,246.667 42.817,246.667 43.000 C 246.667 43.327,246.778 43.333,252.266 43.333 C 257.724 43.333,257.867 43.325,257.952 43.000 C 258.000 42.817,258.109 42.667,258.195 42.667 C 258.281 42.667,258.429 42.442,258.525 42.167 C 258.621 41.892,258.753 41.667,258.819 41.667 C 258.884 41.667,259.041 41.404,259.167 41.083 C 259.293 40.762,259.445 40.500,259.506 40.500 C 259.566 40.500,259.757 40.181,259.928 39.792 C 260.100 39.402,260.286 39.046,260.341 39.000 C 260.396 38.954,260.492 38.804,260.555 38.667 C 260.617 38.529,260.892 38.042,261.167 37.583 C 261.441 37.125,261.797 36.487,261.958 36.167 C 262.118 35.846,262.332 35.508,262.433 35.417 C 262.533 35.325,262.711 35.006,262.828 34.708 C 262.945 34.410,263.095 34.167,263.162 34.167 C 263.228 34.167,263.407 33.885,263.559 33.542 C 263.837 32.911,264.346 31.987,264.500 31.833 C 264.648 31.686,265.166 30.771,265.540 30.000 C 265.740 29.587,266.000 29.151,266.118 29.030 C 266.237 28.909,266.333 28.706,266.333 28.580 C 266.333 28.453,266.427 28.290,266.542 28.217 C 266.656 28.143,266.900 27.790,267.083 27.431 C 267.857 25.916,268.046 25.579,268.168 25.500 C 268.238 25.454,268.420 25.154,268.571 24.833 C 268.957 24.013,269.367 23.265,269.484 23.167 C 269.539 23.121,269.696 22.858,269.834 22.583 C 269.971 22.308,270.173 21.989,270.282 21.873 C 270.391 21.758,270.574 21.401,270.690 21.082 C 270.806 20.762,270.951 20.500,271.013 20.500 C 271.075 20.500,271.219 20.275,271.333 20.000 C 271.596 19.366,271.804 19.366,272.025 20.000 C 272.121 20.275,272.258 20.500,272.329 20.500 C 272.401 20.500,272.558 20.744,272.679 21.042 C 272.799 21.340,272.940 21.621,272.991 21.667 C 273.178 21.834,274.138 23.481,274.245 23.819 C 274.306 24.010,274.412 24.167,274.480 24.167 C 274.549 24.167,274.707 24.429,274.833 24.750 C 274.959 25.071,275.123 25.333,275.198 25.333 C 275.272 25.333,275.333 25.446,275.333 25.583 C 275.333 25.721,275.472 25.972,275.642 26.142 C 275.811 26.311,276.026 26.668,276.119 26.933 C 276.262 27.346,276.850 28.342,277.289 28.917 C 277.359 29.008,277.552 29.346,277.717 29.667 C 278.298 30.798,278.552 31.251,278.651 31.333 C 278.705 31.379,278.919 31.743,279.126 32.143 C 279.698 33.247,280.073 33.908,280.180 34.000 C 280.233 34.046,280.383 34.327,280.512 34.625 C 280.642 34.923,280.796 35.167,280.854 35.167 C 280.912 35.167,281.053 35.392,281.167 35.667 C 281.281 35.942,281.428 36.167,281.494 36.167 C 281.559 36.167,281.714 36.470,281.836 36.841 C 281.959 37.213,282.144 37.569,282.247 37.633 C 282.351 37.697,282.535 37.994,282.655 38.292 C 282.775 38.590,282.928 38.833,282.995 38.833 C 283.062 38.833,283.240 39.115,283.392 39.458 C 283.682 40.116,284.187 41.026,284.340 41.167 C 284.390 41.212,284.544 41.475,284.682 41.750 C 284.821 42.025,285.080 42.493,285.259 42.791 L 285.583 43.331 295.542 43.332 L 305.500 43.333 305.500 31.917 C 305.500 25.637,305.537 20.500,305.583 20.500 C 305.629 20.500,305.811 20.631,305.988 20.792 C 306.165 20.952,306.550 21.271,306.844 21.500 C 307.138 21.729,307.724 22.233,308.147 22.620 C 308.571 23.007,308.984 23.326,309.066 23.329 C 309.148 23.331,309.373 23.486,309.566 23.672 C 310.857 24.920,311.324 25.334,311.445 25.338 C 311.521 25.341,311.802 25.566,312.069 25.838 C 312.337 26.110,312.612 26.333,312.680 26.333 C 312.749 26.333,313.071 26.577,313.396 26.875 C 314.804 28.165,315.232 28.500,315.470 28.500 C 315.609 28.500,315.676 28.546,315.619 28.603 C 315.562 28.660,315.831 28.962,316.216 29.275 C 316.601 29.588,317.108 30.011,317.343 30.214 C 317.577 30.417,318.093 30.846,318.489 31.167 C 318.885 31.488,319.334 31.863,319.487 32.000 C 319.639 32.137,320.136 32.547,320.590 32.911 C 321.045 33.274,321.477 33.668,321.550 33.786 C 321.623 33.904,321.788 34.000,321.917 34.000 C 322.045 34.000,322.210 34.103,322.283 34.229 C 322.357 34.355,322.904 34.847,323.500 35.321 C 325.039 36.548,325.998 37.358,326.421 37.792 C 326.623 37.998,326.855 38.167,326.936 38.167 C 327.018 38.167,327.297 38.392,327.556 38.667 C 327.816 38.942,328.099 39.167,328.186 39.167 C 328.273 39.167,328.585 39.429,328.879 39.750 C 329.173 40.071,329.495 40.333,329.594 40.333 C 329.692 40.333,329.930 40.502,330.121 40.708 C 330.312 40.915,330.794 41.357,331.193 41.692 C 331.591 42.027,332.226 42.571,332.604 42.901 C 332.981 43.230,333.343 43.500,333.406 43.500 C 333.470 43.500,333.770 43.762,334.073 44.083 C 334.375 44.404,334.676 44.667,334.741 44.667 C 334.806 44.667,335.084 44.892,335.359 45.167 C 335.634 45.442,335.966 45.667,336.096 45.667 C 336.227 45.667,336.333 45.742,336.333 45.833 C 336.333 45.925,336.408 46.000,336.500 46.000 C 336.610 46.000,336.667 38.639,336.667 24.250 L 336.667 2.500 331.950 2.500 C 328.504 2.500,327.179 2.554,327.033 2.700 C 326.882 2.852,326.833 5.619,326.833 14.134 L 326.833 25.368 326.458 25.020 C 325.959 24.556,325.355 24.051,324.774 23.611 C 324.511 23.412,324.061 23.042,323.774 22.787 C 322.908 22.021,322.780 21.916,322.001 21.321 C 321.588 21.007,321.153 20.619,321.033 20.458 C 320.913 20.298,320.741 20.167,320.652 20.167 C 320.563 20.167,320.249 19.904,319.954 19.583 C 319.660 19.262,319.338 19.000,319.240 19.000 C 319.141 19.000,318.907 18.831,318.720 18.625 C 318.534 18.419,318.201 18.107,317.982 17.932 C 317.763 17.756,317.321 17.396,317.000 17.129 C 316.679 16.863,316.213 16.482,315.964 16.281 C 315.714 16.081,315.244 15.673,314.919 15.375 C 314.593 15.077,314.258 14.833,314.173 14.833 C 314.088 14.833,313.921 14.696,313.801 14.528 C 313.681 14.361,313.370 14.085,313.108 13.915 C 312.847 13.745,312.380 13.376,312.070 13.095 C 311.421 12.505,310.819 11.997,310.020 11.363 C 309.710 11.118,309.323 10.804,309.161 10.667 C 308.998 10.529,308.631 10.229,308.345 10.000 C 308.058 9.771,307.520 9.302,307.148 8.958 C 306.777 8.615,306.422 8.333,306.361 8.333 C 306.299 8.333,306.037 8.108,305.777 7.833 C 305.517 7.558,305.243 7.333,305.166 7.333 C 305.090 7.333,304.702 7.035,304.305 6.670 C 303.443 5.878,303.011 5.515,301.417 4.247 C 300.958 3.882,300.523 3.490,300.450 3.375 C 300.377 3.260,300.240 3.167,300.146 3.167 C 300.052 3.167,299.700 2.906,299.363 2.588 C 298.251 1.539,297.619 1.000,297.500 1.000 C 297.436 1.000,297.147 0.775,296.860 0.500 C 296.572 0.225,296.261 -0.000,296.168 -0.000 C 296.056 -0.000,296.000 6.915,296.000 20.787 M62.667 0.750 C 62.561 1.071,62.414 1.333,62.341 1.333 C 62.267 1.333,62.109 1.577,61.988 1.875 C 61.868 2.173,61.727 2.454,61.676 2.500 C 61.625 2.546,61.471 2.808,61.333 3.083 C 61.196 3.358,61.040 3.621,60.986 3.667 C 60.932 3.712,60.599 4.275,60.245 4.917 C 59.892 5.558,59.552 6.121,59.491 6.167 C 59.429 6.212,59.326 6.418,59.262 6.624 C 59.197 6.830,59.052 7.092,58.937 7.207 C 58.823 7.322,58.615 7.642,58.474 7.917 C 57.958 8.921,57.579 9.573,57.388 9.783 C 57.281 9.900,57.107 10.260,57.001 10.582 C 56.894 10.903,56.743 11.167,56.665 11.167 C 56.586 11.167,56.427 11.429,56.311 11.750 C 56.195 12.071,56.045 12.333,55.978 12.333 C 55.911 12.333,55.808 12.483,55.750 12.666 C 55.692 12.848,55.553 13.092,55.441 13.207 C 55.329 13.322,55.090 13.705,54.910 14.058 C 54.730 14.411,54.443 14.974,54.272 15.308 C 54.101 15.643,53.907 15.954,53.842 16.000 C 53.777 16.046,53.599 16.327,53.445 16.625 C 52.716 18.043,52.588 18.265,52.385 18.470 C 52.265 18.591,52.121 18.872,52.066 19.095 C 52.010 19.318,51.908 19.500,51.841 19.500 C 51.773 19.500,51.577 19.819,51.405 20.208 C 51.233 20.598,50.997 20.977,50.880 21.050 C 50.763 21.123,50.667 21.287,50.667 21.413 C 50.667 21.539,50.573 21.742,50.458 21.863 C 50.344 21.984,50.138 22.308,50.000 22.583 C 49.863 22.858,49.713 23.121,49.667 23.167 C 49.503 23.330,48.818 24.593,48.560 25.208 C 48.415 25.552,48.236 25.833,48.161 25.833 C 48.087 25.833,47.939 26.096,47.833 26.417 C 47.727 26.738,47.581 27.000,47.507 27.000 C 47.434 27.000,47.275 27.244,47.155 27.542 C 47.035 27.840,46.838 28.143,46.718 28.217 C 46.598 28.290,46.500 28.441,46.500 28.553 C 46.500 28.665,46.323 29.017,46.107 29.336 C 45.891 29.656,45.658 30.093,45.590 30.308 C 45.523 30.523,45.324 30.842,45.150 31.016 C 44.976 31.191,44.833 31.446,44.833 31.583 C 44.833 31.721,44.776 31.833,44.706 31.833 C 44.636 31.833,44.447 32.115,44.286 32.458 C 44.126 32.802,43.805 33.383,43.575 33.750 C 43.344 34.117,43.044 34.660,42.909 34.958 C 42.773 35.256,42.600 35.500,42.524 35.500 C 42.449 35.500,42.289 35.796,42.170 36.158 C 42.050 36.520,41.858 36.852,41.742 36.897 C 41.626 36.941,41.482 37.201,41.422 37.475 C 41.362 37.748,41.205 38.014,41.073 38.064 C 40.941 38.115,40.818 38.290,40.798 38.453 C 40.779 38.616,40.723 37.587,40.673 36.167 L 40.583 33.583 25.042 33.541 L 9.500 33.498 9.500 30.749 L 9.500 28.000 24.820 28.000 C 33.246 28.000,40.258 27.954,40.403 27.899 C 40.635 27.810,40.667 27.220,40.667 22.982 L 40.667 18.167 20.333 18.167 L 0.000 18.167 0.000 30.750 L 0.000 43.333 24.635 43.333 L 49.271 43.333 49.612 42.872 C 49.800 42.618,50.006 42.243,50.071 42.038 C 50.136 41.834,50.254 41.667,50.334 41.667 C 50.413 41.667,50.573 41.404,50.689 41.083 C 50.805 40.762,50.949 40.500,51.008 40.500 C 51.067 40.500,51.257 40.181,51.428 39.792 C 51.600 39.402,51.796 39.043,51.864 38.994 C 51.931 38.945,52.224 38.458,52.515 37.911 C 52.806 37.364,53.090 36.879,53.147 36.833 C 53.204 36.787,53.400 36.456,53.583 36.097 C 54.133 35.020,54.411 34.521,54.634 34.211 C 54.887 33.859,55.212 33.294,55.618 32.500 C 55.782 32.179,56.010 31.857,56.125 31.783 C 56.240 31.710,56.333 31.559,56.333 31.447 C 56.333 31.335,56.517 30.974,56.741 30.643 C 56.966 30.313,57.199 29.846,57.260 29.605 C 57.320 29.364,57.440 29.167,57.527 29.167 C 57.613 29.167,57.762 28.942,57.858 28.667 C 57.954 28.392,58.082 28.167,58.142 28.167 C 58.203 28.167,58.358 27.923,58.488 27.625 C 58.617 27.327,58.774 27.046,58.836 27.000 C 58.961 26.907,59.314 26.276,59.836 25.208 C 60.026 24.819,60.246 24.500,60.323 24.500 C 60.401 24.500,60.510 24.314,60.567 24.088 C 60.624 23.861,60.857 23.400,61.085 23.064 C 61.313 22.728,61.500 22.351,61.500 22.227 C 61.500 22.102,61.579 22.000,61.675 22.000 C 61.772 22.000,61.929 21.775,62.025 21.500 C 62.121 21.225,62.252 21.000,62.315 21.000 C 62.379 21.000,62.571 20.662,62.741 20.250 C 63.089 19.405,63.235 19.335,63.519 19.875 C 63.628 20.081,63.762 20.287,63.817 20.333 C 63.872 20.379,64.051 20.679,64.215 21.000 C 64.621 21.794,64.947 22.359,65.199 22.711 C 65.422 23.021,65.700 23.520,66.250 24.597 C 66.433 24.956,66.672 25.344,66.781 25.459 C 66.889 25.574,67.026 25.818,67.084 26.001 C 67.142 26.184,67.251 26.333,67.326 26.333 C 67.402 26.333,67.510 26.516,67.566 26.738 C 67.621 26.961,67.762 27.242,67.878 27.363 C 67.994 27.484,68.231 27.902,68.403 28.292 C 68.576 28.681,68.773 29.000,68.841 29.000 C 68.908 29.000,69.007 29.174,69.061 29.386 C 69.114 29.598,69.310 29.947,69.495 30.161 C 69.681 30.376,69.833 30.647,69.833 30.764 C 69.833 30.881,69.935 31.078,70.059 31.202 C 70.267 31.410,70.826 32.366,72.315 35.061 C 72.626 35.623,72.926 36.121,72.982 36.167 C 73.038 36.212,73.233 36.544,73.417 36.903 C 74.174 38.386,74.371 38.728,74.596 38.954 C 74.727 39.084,74.833 39.294,74.833 39.420 C 74.833 39.547,74.931 39.710,75.051 39.783 C 75.171 39.857,75.373 40.179,75.500 40.500 C 75.627 40.821,75.820 41.139,75.930 41.206 C 76.040 41.274,76.176 41.513,76.232 41.737 C 76.288 41.961,76.503 42.409,76.709 42.732 L 77.083 43.319 96.333 43.326 C 114.754 43.332,118.207 43.257,118.750 42.839 C 118.842 42.768,119.310 42.618,119.792 42.505 C 120.273 42.392,120.667 42.239,120.667 42.163 C 120.667 42.088,120.891 41.977,121.166 41.917 C 121.440 41.857,121.721 41.719,121.791 41.612 C 121.860 41.504,122.124 41.309,122.377 41.179 C 123.027 40.844,124.268 39.584,124.529 38.995 C 124.649 38.723,124.799 38.500,124.862 38.500 C 125.029 38.500,125.823 36.762,125.947 36.128 C 126.005 35.828,126.109 35.545,126.178 35.499 C 126.793 35.088,126.789 26.703,126.174 25.917 C 126.102 25.825,125.951 25.356,125.839 24.875 C 125.726 24.394,125.571 24.000,125.495 24.000 C 125.418 24.000,125.306 23.831,125.245 23.625 C 124.859 22.325,122.508 19.974,121.208 19.589 C 121.002 19.528,120.833 19.415,120.833 19.339 C 120.833 19.262,120.440 19.106,119.958 18.990 C 119.477 18.875,118.821 18.662,118.500 18.517 C 117.995 18.288,116.536 18.241,107.579 18.168 C 96.568 18.078,97.248 18.130,96.338 17.308 C 95.894 16.908,95.429 15.202,95.644 14.763 C 95.737 14.573,95.859 14.183,95.915 13.898 C 96.224 12.317,95.961 12.342,112.372 12.337 L 126.661 12.333 126.706 7.970 C 126.754 3.195,126.692 3.409,127.667 4.662 C 127.896 4.956,128.365 5.487,128.708 5.842 C 129.052 6.197,129.333 6.532,129.333 6.587 C 129.333 6.687,130.353 7.935,131.167 8.832 C 131.396 9.084,131.771 9.535,132.000 9.833 C 132.229 10.131,132.698 10.678,133.042 11.048 C 133.385 11.418,133.667 11.772,133.667 11.833 C 133.667 11.895,133.948 12.249,134.292 12.619 C 134.635 12.989,135.104 13.535,135.333 13.833 C 135.563 14.131,135.900 14.548,136.083 14.760 C 137.102 15.938,137.769 16.747,137.917 16.983 C 138.112 17.296,139.088 18.406,139.625 18.925 C 139.831 19.125,140.000 19.342,140.000 19.407 C 140.000 19.558,141.679 21.538,141.958 21.717 C 142.073 21.790,142.167 21.927,142.167 22.021 C 142.167 22.116,142.448 22.488,142.792 22.848 C 143.527 23.618,144.122 24.317,144.339 24.667 C 144.431 24.814,144.496 28.716,144.497 34.125 L 144.500 43.333 149.333 43.333 L 154.167 43.333 154.167 34.014 L 154.167 24.695 154.667 24.223 C 154.942 23.963,155.167 23.701,155.167 23.640 C 155.167 23.579,155.410 23.273,155.708 22.960 C 156.006 22.647,156.475 22.107,156.750 21.761 C 157.025 21.415,157.529 20.821,157.871 20.441 C 158.212 20.061,158.493 19.705,158.496 19.650 C 158.498 19.595,158.706 19.329,158.958 19.059 C 159.210 18.789,159.679 18.243,160.000 17.846 C 160.321 17.449,160.696 16.998,160.833 16.843 C 161.883 15.665,162.833 14.506,162.833 14.406 C 162.833 14.339,162.986 14.127,163.172 13.934 C 164.420 12.643,164.834 12.176,164.838 12.055 C 164.841 11.979,165.066 11.698,165.338 11.431 C 165.610 11.163,165.833 10.888,165.833 10.819 C 165.833 10.750,166.115 10.400,166.458 10.041 C 166.802 9.683,167.346 9.065,167.667 8.669 C 167.987 8.273,168.456 7.724,168.708 7.449 C 168.960 7.175,169.167 6.898,169.167 6.833 C 169.167 6.769,169.373 6.490,169.625 6.214 C 169.877 5.937,170.365 5.402,170.708 5.024 C 171.052 4.647,171.333 4.293,171.333 4.239 C 171.333 4.185,171.558 3.916,171.833 3.641 C 172.991 2.483,173.074 2.500,166.083 2.500 C 162.195 2.500,159.833 2.561,159.833 2.660 C 159.833 2.748,159.533 3.117,159.167 3.480 C 158.800 3.844,158.500 4.218,158.500 4.312 C 158.500 4.406,158.406 4.543,158.292 4.617 C 158.107 4.735,157.322 5.648,155.614 7.730 C 155.322 8.086,154.878 8.611,154.628 8.897 C 154.377 9.183,154.077 9.534,153.961 9.677 C 153.845 9.820,153.356 10.396,152.875 10.956 C 152.394 11.516,152.000 12.014,152.000 12.063 C 152.000 12.112,151.831 12.330,151.625 12.547 C 151.419 12.765,150.987 13.265,150.667 13.659 C 150.346 14.053,149.920 14.558,149.721 14.781 L 149.359 15.187 148.930 14.814 C 148.693 14.608,148.500 14.368,148.500 14.281 C 148.500 14.193,148.331 13.957,148.125 13.755 C 147.919 13.554,147.487 13.067,147.167 12.673 C 145.823 11.024,145.289 10.388,144.824 9.880 C 144.554 9.584,144.333 9.293,144.333 9.233 C 144.333 9.172,144.071 8.875,143.750 8.573 C 143.429 8.270,143.167 7.970,143.167 7.906 C 143.167 7.843,142.898 7.481,142.570 7.104 C 142.241 6.726,141.735 6.129,141.445 5.777 C 141.154 5.426,140.710 4.940,140.458 4.699 C 140.206 4.457,140.000 4.191,140.000 4.108 C 140.000 4.024,139.668 3.625,139.263 3.219 L 138.527 2.483 116.924 2.533 C 102.245 2.567,95.283 2.639,95.202 2.756 C 95.137 2.851,94.566 3.015,93.933 3.121 C 93.300 3.226,92.738 3.374,92.683 3.449 C 92.628 3.524,92.283 3.686,91.917 3.809 C 90.154 4.402,87.882 6.503,87.428 7.958 C 87.364 8.165,87.248 8.333,87.172 8.333 C 87.096 8.333,86.940 8.727,86.826 9.208 C 86.712 9.690,86.561 10.121,86.490 10.168 C 85.862 10.581,85.870 19.944,86.499 20.333 C 86.575 20.379,86.689 20.702,86.755 21.050 C 86.820 21.398,86.973 21.783,87.095 21.905 C 87.217 22.027,87.362 22.306,87.417 22.525 C 87.533 22.987,88.296 23.973,89.250 24.893 C 90.301 25.906,90.408 25.985,91.013 26.196 C 91.326 26.305,91.676 26.486,91.788 26.599 C 91.901 26.711,92.295 26.854,92.663 26.916 C 93.032 26.978,93.333 27.090,93.333 27.164 C 93.333 27.287,94.542 27.484,97.000 27.763 C 97.504 27.820,101.906 27.915,106.782 27.975 L 115.647 28.083 116.172 28.621 C 117.027 29.495,117.092 31.791,116.288 32.718 C 115.604 33.507,115.754 33.500,100.489 33.500 L 86.000 33.500 86.000 36.167 C 86.000 38.872,85.902 39.299,85.523 38.250 C 85.407 37.929,85.252 37.667,85.179 37.667 C 85.105 37.667,84.916 37.329,84.759 36.917 C 84.601 36.504,84.415 36.167,84.345 36.167 C 84.275 36.167,84.092 35.885,83.938 35.542 C 83.593 34.768,83.148 33.944,83.016 33.833 C 82.908 33.742,82.801 33.562,81.684 31.583 C 81.270 30.850,80.886 30.212,80.831 30.167 C 80.776 30.121,80.632 29.840,80.512 29.542 C 80.391 29.244,80.243 29.000,80.183 29.000 C 80.123 29.000,79.984 28.794,79.876 28.542 C 79.767 28.290,79.453 27.708,79.177 27.250 C 78.901 26.792,78.556 26.162,78.409 25.851 C 78.262 25.539,78.035 25.178,77.905 25.047 C 77.774 24.917,77.621 24.628,77.566 24.405 C 77.510 24.182,77.402 24.000,77.326 24.000 C 77.251 24.000,77.142 23.850,77.084 23.668 C 77.026 23.485,76.889 23.241,76.781 23.126 C 76.672 23.011,76.418 22.579,76.215 22.167 C 75.813 21.347,75.304 20.465,75.157 20.333 C 75.106 20.287,74.966 20.006,74.845 19.708 C 74.725 19.410,74.566 19.167,74.493 19.167 C 74.419 19.167,74.274 18.909,74.170 18.594 C 74.066 18.279,73.919 17.998,73.843 17.969 C 73.712 17.920,73.559 17.654,72.750 16.069 C 72.567 15.710,72.359 15.374,72.289 15.322 C 72.219 15.270,72.028 14.970,71.864 14.655 C 71.471 13.898,71.104 13.270,70.995 13.167 C 70.947 13.121,70.767 12.765,70.595 12.375 C 70.423 11.985,70.227 11.667,70.159 11.667 C 70.092 11.667,69.990 11.484,69.934 11.262 C 69.879 11.039,69.733 10.757,69.612 10.635 C 69.396 10.419,69.162 10.022,68.550 8.833 C 68.385 8.512,68.162 8.193,68.055 8.124 C 67.947 8.055,67.810 7.774,67.750 7.501 C 67.690 7.228,67.578 6.965,67.501 6.917 C 67.424 6.869,67.079 6.325,66.736 5.707 C 66.393 5.089,66.061 4.546,66.000 4.500 C 65.938 4.454,65.748 4.098,65.578 3.708 C 65.408 3.319,65.223 3.000,65.166 3.000 C 65.109 3.000,64.959 2.737,64.833 2.417 C 64.707 2.096,64.553 1.833,64.489 1.833 C 64.426 1.833,64.281 1.608,64.167 1.333 C 64.053 1.058,63.902 0.833,63.833 0.833 C 63.763 0.833,63.666 0.683,63.618 0.500 C 63.470 -0.068,62.886 0.085,62.667 0.750 M180.755 2.614 C 180.115 2.652,179.553 2.739,179.505 2.808 C 179.456 2.876,178.743 3.027,177.920 3.143 C 177.097 3.259,176.385 3.406,176.337 3.470 C 176.289 3.534,175.838 3.731,175.333 3.907 C 174.379 4.242,173.408 4.753,173.030 5.120 C 172.909 5.237,172.751 5.333,172.679 5.333 C 172.570 5.333,171.992 5.788,171.455 6.296 C 170.772 6.942,169.801 8.154,169.725 8.456 C 169.673 8.664,169.580 8.833,169.518 8.833 C 169.148 8.833,168.146 11.663,167.747 13.833 C 167.471 15.339,167.407 29.871,167.669 31.750 C 167.944 33.723,168.861 36.348,169.657 37.439 C 169.800 37.635,170.029 37.967,170.167 38.177 C 171.063 39.548,174.364 42.000,175.312 42.000 C 175.416 42.000,175.500 42.063,175.500 42.141 C 175.500 42.219,176.044 42.411,176.708 42.568 C 177.373 42.725,178.217 42.928,178.583 43.020 C 178.950 43.112,181.537 43.224,184.333 43.268 C 190.029 43.357,190.101 43.364,190.255 43.850 C 190.316 44.042,190.753 44.596,191.225 45.081 C 192.465 46.354,193.833 47.863,193.833 47.957 C 193.833 48.002,194.133 48.330,194.500 48.686 L 195.167 49.333 201.667 49.333 C 205.242 49.333,208.167 49.277,208.167 49.207 C 208.167 49.138,207.904 48.840,207.583 48.546 C 207.262 48.251,207.000 47.947,207.000 47.869 C 207.000 47.791,206.831 47.574,206.625 47.387 C 206.419 47.201,205.961 46.718,205.607 46.316 C 204.497 45.050,203.116 43.532,202.208 42.578 C 201.190 41.508,201.160 41.398,201.845 41.248 C 202.126 41.186,202.396 41.030,202.446 40.901 C 202.495 40.772,202.626 40.667,202.737 40.667 C 202.984 40.667,204.833 38.968,204.833 38.742 C 204.833 38.653,204.983 38.487,205.167 38.372 C 205.350 38.258,205.500 38.052,205.500 37.915 C 205.500 37.779,205.568 37.667,205.652 37.667 C 205.841 37.667,207.000 35.349,207.000 34.971 C 207.000 34.819,207.072 34.669,207.161 34.639 C 207.249 34.608,207.415 34.021,207.530 33.333 C 207.644 32.646,207.815 32.030,207.910 31.964 C 208.158 31.794,208.149 14.303,207.902 13.984 C 207.802 13.855,207.621 13.206,207.500 12.542 C 207.379 11.877,207.226 11.333,207.160 11.333 C 207.094 11.333,206.951 10.977,206.843 10.542 C 206.736 10.106,206.464 9.470,206.240 9.129 C 206.016 8.787,205.833 8.439,205.833 8.355 C 205.833 8.271,205.721 8.159,205.583 8.106 C 205.446 8.054,205.333 7.923,205.333 7.817 C 205.333 7.571,203.110 5.333,202.866 5.333 C 202.765 5.333,202.623 5.235,202.550 5.115 C 202.477 4.995,202.154 4.792,201.833 4.664 C 201.512 4.536,201.159 4.342,201.048 4.233 C 200.937 4.125,200.449 3.942,199.965 3.827 C 199.480 3.712,199.042 3.556,198.992 3.479 C 198.942 3.402,198.304 3.249,197.575 3.138 C 196.846 3.027,196.199 2.861,196.137 2.770 C 196.024 2.602,183.127 2.472,180.755 2.614 M210.212 17.208 C 210.254 27.506,210.328 32.092,210.460 32.500 C 210.563 32.821,210.777 33.571,210.935 34.167 C 211.093 34.762,211.274 35.287,211.337 35.333 C 211.400 35.379,211.548 35.717,211.666 36.083 C 211.784 36.450,211.982 36.810,212.107 36.883 C 212.231 36.957,212.333 37.094,212.333 37.189 C 212.333 37.762,214.503 40.155,215.375 40.544 C 215.627 40.656,215.833 40.809,215.833 40.883 C 215.833 40.957,216.058 41.096,216.333 41.192 C 216.608 41.288,216.833 41.424,216.833 41.495 C 216.833 41.565,217.171 41.718,217.583 41.833 C 217.996 41.949,218.333 42.097,218.333 42.162 C 218.333 42.261,219.861 42.680,220.417 42.734 C 220.508 42.743,220.622 42.802,220.670 42.865 C 221.181 43.540,239.930 43.486,240.348 42.809 C 240.406 42.715,240.504 42.654,240.564 42.673 C 240.799 42.748,242.667 42.309,242.667 42.180 C 242.667 42.105,243.004 41.949,243.417 41.833 C 243.829 41.718,244.167 41.565,244.167 41.495 C 244.167 41.424,244.392 41.288,244.667 41.192 C 244.942 41.096,245.167 40.938,245.167 40.842 C 245.167 40.746,245.250 40.667,245.351 40.667 C 245.713 40.667,247.667 38.994,247.667 38.684 C 247.667 38.611,247.811 38.421,247.988 38.261 C 248.165 38.101,248.431 37.714,248.579 37.402 C 248.728 37.089,248.911 36.833,248.986 36.833 C 249.062 36.833,249.218 36.496,249.333 36.083 C 249.449 35.671,249.597 35.333,249.662 35.333 C 249.727 35.333,249.876 34.902,249.992 34.375 C 250.108 33.848,250.263 33.342,250.335 33.250 C 250.734 32.746,250.832 29.387,250.833 16.292 L 250.833 2.500 246.155 2.500 C 242.366 2.500,241.432 2.544,241.243 2.733 C 241.047 2.929,241.002 5.170,240.963 16.525 C 240.926 27.213,240.871 30.172,240.701 30.500 C 240.131 31.603,239.844 31.941,238.741 32.814 C 237.598 33.717,222.333 33.715,222.333 32.812 C 222.333 32.732,222.236 32.667,222.116 32.667 C 221.857 32.667,220.833 31.645,220.833 31.387 C 220.833 31.288,220.729 31.121,220.602 31.015 C 220.036 30.546,219.993 29.483,219.998 16.152 C 220.002 4.911,219.968 2.944,219.764 2.740 C 219.566 2.543,218.692 2.500,214.838 2.500 L 210.152 2.500 210.212 17.208 M338.667 7.417 L 338.667 12.333 346.417 12.333 L 354.167 12.333 354.167 27.833 L 354.167 43.333 359.083 43.333 L 364.000 43.333 364.000 27.833 L 364.000 12.333 371.667 12.333 L 379.333 12.333 379.333 7.417 L 379.333 2.500 359.000 2.500 L 338.667 2.500 338.667 7.417 M392.667 2.617 C 392.347 2.659,392.009 2.753,391.917 2.825 C 391.825 2.897,391.460 3.050,391.106 3.164 C 390.751 3.278,390.339 3.478,390.189 3.609 C 390.039 3.739,389.673 4.037,389.375 4.271 C 389.077 4.505,388.833 4.802,388.833 4.931 C 388.833 5.061,388.754 5.167,388.658 5.167 C 388.562 5.167,388.404 5.392,388.308 5.667 C 388.212 5.942,388.075 6.167,388.003 6.167 C 387.761 6.167,387.500 7.638,387.500 9.000 C 387.500 10.399,387.763 11.833,388.020 11.833 C 388.101 11.833,388.167 11.956,388.167 12.105 C 388.167 12.527,390.155 14.395,391.083 14.846 C 391.998 15.290,395.868 15.465,396.131 15.074 C 396.197 14.977,396.512 14.791,396.833 14.661 C 397.329 14.460,398.650 13.273,399.263 12.475 C 400.282 11.151,400.225 6.544,399.176 5.427 C 398.988 5.226,398.833 4.990,398.833 4.901 C 398.833 4.538,397.168 3.354,396.333 3.124 C 396.012 3.035,395.712 2.905,395.667 2.835 C 395.560 2.671,393.433 2.517,392.667 2.617 M394.667 4.299 C 394.667 4.371,395.004 4.521,395.417 4.631 C 395.829 4.742,396.167 4.907,396.167 4.999 C 396.167 5.091,396.257 5.167,396.367 5.167 C 396.599 5.167,397.667 6.161,397.667 6.378 C 397.667 6.458,397.779 6.636,397.917 6.774 C 398.054 6.911,398.214 7.318,398.271 7.678 C 398.329 8.039,398.441 8.333,398.521 8.333 C 398.601 8.333,398.667 8.633,398.667 9.000 C 398.667 9.367,398.601 9.667,398.522 9.667 C 398.442 9.667,398.334 9.932,398.281 10.255 C 398.091 11.429,396.345 13.333,395.461 13.333 C 395.314 13.333,395.167 13.415,395.134 13.516 C 395.056 13.749,392.671 13.775,392.524 13.544 C 392.465 13.451,392.172 13.322,391.874 13.257 C 391.575 13.193,391.254 12.996,391.159 12.820 C 391.065 12.644,390.885 12.500,390.760 12.500 C 390.514 12.500,389.500 11.079,389.500 10.735 C 389.500 10.621,389.412 10.498,389.304 10.462 C 389.052 10.378,389.012 7.703,389.260 7.535 C 389.357 7.470,389.539 7.162,389.665 6.850 C 389.867 6.350,390.412 5.723,391.243 5.033 C 391.387 4.914,391.879 4.727,392.336 4.619 C 392.793 4.510,393.167 4.364,393.167 4.294 C 393.167 4.224,393.504 4.167,393.917 4.167 C 394.329 4.167,394.667 4.226,394.667 4.299 M391.000 8.813 L 391.000 12.333 392.000 12.333 L 393.000 12.333 393.000 11.083 C 393.000 10.156,393.057 9.833,393.221 9.833 C 393.489 9.833,394.167 10.528,394.167 10.802 C 394.167 10.911,394.239 11.000,394.327 11.000 C 394.415 11.000,394.577 11.300,394.686 11.667 L 394.886 12.333 395.943 12.333 C 396.917 12.333,397.000 12.305,397.000 11.972 C 397.000 11.543,396.088 9.614,395.755 9.337 C 395.559 9.175,395.571 9.095,395.835 8.831 C 396.485 8.182,396.428 6.311,395.748 5.933 C 395.566 5.833,395.365 5.679,395.303 5.591 C 395.240 5.504,394.246 5.401,393.094 5.363 L 391.000 5.293 391.000 8.813 M394.101 7.429 C 394.226 7.927,394.092 8.100,393.458 8.256 C 393.014 8.366,393.000 8.348,393.000 7.685 C 393.000 6.824,393.897 6.615,394.101 7.429 M194.163 12.511 C 194.757 12.607,195.282 12.747,195.330 12.821 C 195.377 12.895,195.580 13.006,195.779 13.068 C 196.352 13.247,197.449 14.411,197.867 15.284 C 198.553 16.717,198.512 30.833,197.822 30.833 C 197.749 30.833,197.645 30.971,197.592 31.140 C 197.460 31.555,196.601 32.500,196.355 32.500 C 196.246 32.500,196.115 32.608,196.064 32.740 C 195.671 33.765,180.039 33.867,179.699 32.847 C 179.666 32.748,179.542 32.667,179.423 32.667 C 179.013 32.667,177.713 31.049,177.588 30.385 C 177.523 30.036,177.383 29.697,177.276 29.631 C 177.023 29.475,176.998 16.381,177.251 16.202 C 177.343 16.137,177.522 15.788,177.648 15.428 C 177.894 14.725,177.920 14.684,178.621 13.900 C 179.157 13.302,180.457 12.644,181.417 12.485 C 182.534 12.301,192.996 12.322,194.163 12.511 " stroke="none" fill="#fcfcfc" fill-rule="evenodd"></path><path id="path1" d="M0.000 7.417 L 0.000 12.333 20.333 12.333 L 40.667 12.333 40.667 7.417 L 40.667 2.500 20.333 2.500 L 0.000 2.500 0.000 7.417 " stroke="none" fill="#1ddb43" fill-rule="evenodd"></path></g></svg>