<svg id="svg" xmlns="http://www.w3.org/2000/svg" xmlns:xlink="http://www.w3.org/1999/xlink" width="400" height="399.6131528046422" viewBox="0, 0, 400,399.6131528046422"><g id="svgg"><path id="path0" d="M174.081 21.421 L 174.081 38.973 170.503 39.619 C 83.807 55.251,25.019 139.844,40.091 227.273 C 51.608 294.082,104.792 348.162,170.245 359.618 L 174.081 360.289 174.081 378.017 L 174.081 395.745 200.580 395.745 L 227.079 395.745 227.079 377.989 L 227.079 360.234 229.691 359.793 C 245.888 357.055,265.845 349.728,281.575 340.744 L 286.362 338.011 296.472 348.116 C 302.032 353.673,306.755 358.221,306.967 358.221 C 307.180 358.221,315.708 349.864,325.919 339.652 L 344.485 321.083 316.634 293.230 C 301.316 277.911,288.672 265.377,288.536 265.377 C 288.400 265.377,287.269 266.639,286.024 268.182 C 244.655 319.417,169.216 323.576,122.820 277.180 C 76.880 231.240,80.709 155.681,131.059 114.605 C 190.370 66.217,279.401 91.719,304.594 164.312 L 305.969 168.276 251.371 168.374 L 196.773 168.472 185.427 194.546 C 179.187 208.886,174.081 220.767,174.081 220.948 C 174.081 221.129,216.269 221.277,267.831 221.277 L 361.581 221.277 362.022 216.925 C 362.860 208.652,362.953 205.187,362.505 199.027 C 356.192 112.363,309.282 55.023,232.398 39.994 L 227.079 38.954 227.079 21.411 L 227.079 3.868 200.580 3.868 L 174.081 3.868 174.081 21.421 " stroke="none" fill="#F7F7F7" fill-rule="evenodd"></path></g></svg>